<svg width="33" height="23" viewBox="0 0 33 23" fill="none" xmlns="http://www.w3.org/2000/svg">
<rect width="32.1176" height="22.2353" rx="4.11765" fill="#5EB367"/>
<path d="M9.94162 14.8368C9.90209 14.79 9.88232 14.7385 9.88232 14.681C9.88232 14.6382 9.88562 14.6071 9.89138 14.5847L12.0021 7.72221C12.0622 7.51491 12.1833 7.41174 12.3644 7.41174H13.7776C13.9588 7.41174 14.0799 7.51491 14.14 7.72221L16.2507 14.5847C16.2564 14.6051 16.2597 14.6382 16.2597 14.681C16.2597 14.7394 16.24 14.79 16.2013 14.8368C16.1617 14.8835 16.1181 14.9059 16.0695 14.9059H14.8919C14.7469 14.9059 14.644 14.8261 14.5839 14.6703L14.2577 13.6328H11.8843L11.5582 14.6703C11.4981 14.8261 11.3951 14.9059 11.2502 14.9059H10.0726C10.0248 14.9068 9.98115 14.8835 9.94162 14.8368ZM12.2656 12.027H13.8781L13.0719 9.29695L12.2656 12.027Z" fill="white"/>
<path d="M16.7268 14.8368C16.6872 14.79 16.6675 14.7385 16.6675 14.681C16.6675 14.6382 16.6708 14.6071 16.6765 14.5847L18.7872 7.72221C18.8482 7.51491 18.9692 7.41174 19.1488 7.41174H20.5628C20.7448 7.41174 20.865 7.51491 20.9235 7.72221L23.0342 14.5847C23.04 14.6051 23.0432 14.6382 23.0432 14.681C23.0432 14.7394 23.0251 14.79 22.9856 14.8368C22.9452 14.8835 22.9008 14.9059 22.8547 14.9059H21.6762C21.5312 14.9059 21.4283 14.8261 21.3674 14.6703L21.0412 13.6328H18.667L18.3409 14.6703C18.2816 14.8261 18.1787 14.9059 18.0337 14.9059H16.8552C16.81 14.9068 16.7663 14.8835 16.7268 14.8368ZM19.0516 12.027H20.6632L19.857 9.29695L19.0516 12.027Z" fill="white"/>
</svg>
