<svg width="55" height="45" viewBox="0 0 55 45" fill="none" xmlns="http://www.w3.org/2000/svg">
    <g clip-path="url(#clip0_8_1815)">
        <path d="M23.0817 15.315H19.7817V18.015H23.0817V15.315Z" fill="#B5B5B5" stroke="#B5B5B5"/>
        <path d="M47.0433 42.3C47.0433 37.785 47.0433 8.385 47.0433 8.265C46.8233 3.63 42.2217 0 36.5567 0C32.01 0 28.0683 2.34 26.6383 5.79C26.4917 5.79 26.3633 5.79 26.3633 5.79C22.5317 5.88 20.0567 8.61 19.8917 11.19L19.8 12.615H35.1817L35.09 11.19C34.9433 8.955 33.0733 6.615 30.1033 5.97C31.295 3.99 33.7517 2.7 36.5567 2.7C40.4433 2.7 43.5967 5.175 43.7617 8.34C43.7617 9.225 43.7617 37.845 43.7617 42.3H-0.0183334V45H54.9817V42.3H47.0433ZM31.2583 9.915H23.6867C24.2 9.165 25.1167 8.52 26.4 8.49C26.4917 8.49 27.4083 8.49 27.4633 8.49C27.5367 8.49 28.38 8.49 28.49 8.49C29.8283 8.52 30.7267 9.165 31.2583 9.915Z" fill="#B5B5B5"/>
        <path d="M23.0817 20.715H19.7817V23.415H23.0817V20.715Z" fill="#B5B5B5" stroke="#B5B5B5"/>
        <path d="M23.0817 26.115H19.7817V28.815H23.0817V26.115Z" fill="#B5B5B5" stroke="#B5B5B5"/>
        <path d="M23.0817 31.5H19.7817V34.2H23.0817V31.5Z" fill="#B5B5B5" stroke="#B5B5B5"/>
        <path d="M23.0817 36.9H19.7817V39.6H23.0817V36.9Z" fill="#B5B5B5" stroke="#B5B5B5"/>
        <path d="M35.1633 15.315H31.8633V18.015H35.1633V15.315Z" fill="#B5B5B5" stroke="#B5B5B5"/>
        <path d="M35.1633 20.715H31.8633V23.415H35.1633V20.715Z" fill="#B5B5B5" stroke="#B5B5B5"/>
        <path d="M35.1633 26.115H31.8633V28.815H35.1633V26.115Z" fill="#B5B5B5" stroke="#B5B5B5"/>
        <path d="M35.1633 31.5H31.8633V34.2H35.1633V31.5Z" fill="#B5B5B5" stroke="#B5B5B5"/>
        <path d="M35.1633 36.9H31.8633V39.6H35.1633V36.9Z" fill="#B5B5B5" stroke="#B5B5B5"/>
        <path d="M29.1313 15.315H25.8313V18.015H29.1313V15.315Z" fill="#B5B5B5" stroke="#B5B5B5"/>
        <path d="M29.1313 20.715H25.8313V23.415H29.1313V20.715Z" fill="#B5B5B5" stroke="#B5B5B5"/>
        <path d="M29.1313 26.115H25.8313V28.815H29.1313V26.115Z" fill="#B5B5B5" stroke="#B5B5B5"/>
        <path d="M29.1313 31.5H25.8313V34.2H29.1313V31.5Z" fill="#B5B5B5" stroke="#B5B5B5"/>
        <path d="M29.1313 36.9H25.8313V39.6H29.1313V36.9Z" fill="#B5B5B5" stroke="#B5B5B5"/>
    </g>
    <defs>
        <clipPath id="clip0_8_1815">
            <rect width="55" height="45" fill="white"/>
        </clipPath>
    </defs>
</svg>