<svg width="55" height="45" viewBox="0 0 55 45" fill="none" xmlns="http://www.w3.org/2000/svg">
    <g clip-path="url(#clip0_8_1808)">
        <path fill-rule="evenodd" clip-rule="evenodd" d="M55 25.0962V45H51.5625V38.0769H3.4375V45H0V25.0962V22.5C2.29167 21.9231 4.58333 21.4183 6.875 20.9856V0H8.59375H48.125V1.73077V20.9856C50.4167 21.4183 52.7083 21.9231 55 22.5V25.0962ZM51.5625 25.1502C43.5417 23.3834 35.5208 22.5 27.5 22.5C19.4792 22.5 11.4583 23.3834 3.4375 25.1502V34.6154H51.5625V25.1502ZM44.6875 20.3906V3.46154H29.2188V19.052C34.375 19.1331 39.5312 19.5793 44.6875 20.3906ZM25.7812 19.052V3.46154H10.3125V20.3906C15.4688 19.5793 20.625 19.1331 25.7812 19.052Z" fill="#B5B5B5"/>
    </g>
    <defs>
        <clipPath id="clip0_8_1808">
            <rect width="55" height="45" fill="white"/>
        </clipPath>
    </defs>
</svg>