<svg width="17" height="24" viewBox="0 0 17 24" fill="none" xmlns="http://www.w3.org/2000/svg">
    <path d="M14.875 0C16.0482 0 17 1.00781 17 2.25V21.75C17 22.9922 16.0482 24 14.875 24H10.625V20.25C10.625 19.0078 9.67318 18 8.5 18C7.32682 18 6.375 19.0078 6.375 20.25V24H2.125C0.951824 24 0 22.9922 0 21.75V2.25C0 1.00781 0.951824 0 2.125 0H14.875ZM14.1667 11.25C14.1667 10.8375 13.8479 10.5 13.4583 10.5H12.0417C11.6521 10.5 11.3333 10.8375 11.3333 11.25V12.75C11.3333 13.1625 11.6521 13.5 12.0417 13.5H13.4583C13.8479 13.5 14.1667 13.1625 14.1667 12.75V11.25ZM9.20833 10.5H7.79167C7.40208 10.5 7.08333 10.8375 7.08333 11.25V12.75C7.08333 13.1625 7.40208 13.5 7.79167 13.5H9.20833C9.59792 13.5 9.91667 13.1625 9.91667 12.75V11.25C9.91667 10.8375 9.59792 10.5 9.20833 10.5ZM5.66667 11.25C5.66667 10.8375 5.34792 10.5 4.95833 10.5H3.54167C3.15208 10.5 2.83333 10.8375 2.83333 11.25V12.75C2.83333 13.1625 3.15208 13.5 3.54167 13.5H4.95833C5.34792 13.5 5.66667 13.1625 5.66667 12.75V11.25ZM13.4583 4.5H12.0417C11.6521 4.5 11.3333 4.8375 11.3333 5.25V6.75C11.3333 7.1625 11.6521 7.5 12.0417 7.5H13.4583C13.8479 7.5 14.1667 7.1625 14.1667 6.75V5.25C14.1667 4.8375 13.8479 4.5 13.4583 4.5ZM9.91667 5.25C9.91667 4.8375 9.59792 4.5 9.20833 4.5H7.79167C7.40208 4.5 7.08333 4.8375 7.08333 5.25V6.75C7.08333 7.1625 7.40208 7.5 7.79167 7.5H9.20833C9.59792 7.5 9.91667 7.1625 9.91667 6.75V5.25ZM4.95833 4.5H3.54167C3.15208 4.5 2.83333 4.8375 2.83333 5.25V6.75C2.83333 7.1625 3.15208 7.5 3.54167 7.5H4.95833C5.34792 7.5 5.66667 7.1625 5.66667 6.75V5.25C5.66667 4.8375 5.34792 4.5 4.95833 4.5Z" fill="#0BCED7"/>
</svg>
