<svg width="10" height="12" viewBox="0 0 10 12" fill="none" xmlns="http://www.w3.org/2000/svg">
    <path d="M9.70664 2.70625C10.0973 2.31562 10.0973 1.68125 9.70664 1.29062C9.31602 0.9 8.68164 0.9 8.29102 1.29062L5.00039 4.58437L1.70664 1.29375C1.31602 0.903125 0.681641 0.903125 0.291016 1.29375C-0.0996094 1.68437 -0.0996094 2.31875 0.291016 2.70937L3.58477 6L0.294141 9.29375C-0.0964844 9.68437 -0.0964844 10.3188 0.294141 10.7094C0.684766 11.1 1.31914 11.1 1.70977 10.7094L5.00039 7.41562L8.29414 10.7062C8.68477 11.0969 9.31914 11.0969 9.70977 10.7062C10.1004 10.3156 10.1004 9.68125 9.70977 9.29062L6.41602 6L9.70664 2.70625Z" fill="#B7B7B7"/>
</svg>