<svg width="28" height="22" viewBox="0 0 28 22" fill="none" xmlns="http://www.w3.org/2000/svg">
<g clip-path="url(#clip0_2_8438)">
<path d="M9.45529 14.7206C14.1865 14.7206 18.02 11.4252 18.02 7.36029C18.02 3.2954 14.1865 0 9.45529 0C4.72412 0 0.890587 3.2954 0.890587 7.36029C0.890587 8.97454 1.49588 10.4675 2.52118 11.6845C2.37706 12.0776 2.16294 12.4247 1.93647 12.7174C1.73882 12.9767 1.53706 13.1774 1.38882 13.3154C1.31471 13.3824 1.25294 13.4367 1.21176 13.4702C1.19118 13.4869 1.17471 13.4994 1.16647 13.5036L1.15823 13.512C0.931764 13.6835 0.83294 13.9846 0.923529 14.2564C1.01412 14.5282 1.26529 14.7206 1.54941 14.7206C2.44706 14.7206 3.35294 14.4864 4.10647 14.1978C4.48529 14.0515 4.83941 13.8884 5.14823 13.7211C6.41235 14.3568 7.88235 14.7206 9.45529 14.7206ZM19.3376 7.36029C19.3376 12.0567 15.2571 15.5946 10.4229 16.017C11.4235 19.1284 14.7424 21.4118 18.6788 21.4118C20.2518 21.4118 21.7218 21.0479 22.99 20.4123C23.2988 20.5795 23.6488 20.7426 24.0276 20.889C24.7812 21.1776 25.6871 21.4118 26.5847 21.4118C26.8688 21.4118 27.1241 21.2236 27.2106 20.9476C27.2971 20.6716 27.2024 20.3704 26.9718 20.199L26.9635 20.1906C26.9553 20.1823 26.9388 20.1739 26.9182 20.1572C26.8771 20.1237 26.8153 20.0735 26.7412 20.0024C26.5929 19.8644 26.3912 19.6637 26.1935 19.4044C25.9671 19.1117 25.7529 18.7604 25.6088 18.3715C26.6341 17.1587 27.2394 15.6657 27.2394 14.0473C27.2394 10.1664 23.7435 6.98391 19.3088 6.7079C19.3253 6.92119 19.3335 7.13865 19.3335 7.35611L19.3376 7.36029Z" fill="#262626"/>
</g>
<defs>
<clipPath id="clip0_2_8438">
<rect width="26.3529" height="21.4118" fill="white" transform="translate(0.890625)"/>
</clipPath>
</defs>
</svg>
