<svg width="27" height="22" viewBox="0 0 27 22" fill="none" xmlns="http://www.w3.org/2000/svg">
<path d="M26.5363 13.4245C27.1318 14.2337 26.9591 15.3702 26.1499 15.9657L20.3946 20.2071C19.3309 20.9891 18.0489 21.4118 16.726 21.4118H9.43417H2.16054C1.35589 21.4118 0.705811 20.7618 0.705811 19.9571V17.0477C0.705811 16.243 1.35589 15.5929 2.16054 15.5929H3.83347L5.87464 13.9564C6.90659 13.129 8.18856 12.6835 9.51146 12.6835H13.071H13.7984H16.7078C17.5125 12.6835 18.1625 13.3336 18.1625 14.1382C18.1625 14.9428 17.5125 15.5929 16.7078 15.5929H13.7984H13.071C12.6709 15.5929 12.3436 15.9202 12.3436 16.3203C12.3436 16.7203 12.6709 17.0477 13.071 17.0477H18.5535L23.9951 13.0381C24.8043 12.4425 25.9408 12.6153 26.5363 13.4245ZM9.50691 15.5929H9.466C9.47963 15.5929 9.49327 15.5929 9.50691 15.5929Z" fill="#262626"/>
<path d="M21.5979 1.43667C21.9263 1.10821 21.9263 0.5748 21.5979 0.246343C21.2694 -0.0821142 20.736 -0.0821142 20.4075 0.246343L11.999 8.65484C11.6706 8.9833 11.6706 9.51671 11.999 9.84517C12.3275 10.1736 12.8609 10.1736 13.1894 9.84517L21.5979 1.43667ZM15.1181 1.68367C15.1181 0.756108 14.3639 0.00197066 13.4364 0.00197066C12.5088 0.00197066 11.7547 0.756108 11.7547 1.68367C11.7547 2.61123 12.5088 3.36537 13.4364 3.36537C14.3639 3.36537 15.1181 2.61123 15.1181 1.68367ZM21.8449 8.41047C21.8449 7.48291 21.0907 6.72877 20.1632 6.72877C19.2356 6.72877 18.4815 7.48291 18.4815 8.41047C18.4815 9.33803 19.2356 10.0922 20.1632 10.0922C21.0907 10.0922 21.8449 9.33803 21.8449 8.41047Z" fill="#262626"/>
</svg>
