<svg width="21" height="21" viewBox="0 0 21 21" fill="none" xmlns="http://www.w3.org/2000/svg">
<g clip-path="url(#clip0_2_8442)">
<path d="M10.5378 20.5882C16.2237 20.5882 20.8319 15.98 20.8319 10.2941C20.8319 4.60823 16.2237 0 10.5378 0C4.85188 0 0.243652 4.60823 0.243652 10.2941C0.243652 15.98 4.85188 20.5882 10.5378 20.5882ZM8.92931 13.511H9.89439V10.9375H8.92931C8.3945 10.9375 7.96424 10.5072 7.96424 9.97243C7.96424 9.43762 8.3945 9.00735 8.92931 9.00735H10.8595C11.3943 9.00735 11.8245 9.43762 11.8245 9.97243V13.511H12.1462C12.681 13.511 13.1113 13.9413 13.1113 14.4761C13.1113 15.0109 12.681 15.4412 12.1462 15.4412H8.92931C8.3945 15.4412 7.96424 15.0109 7.96424 14.4761C7.96424 13.9413 8.3945 13.511 8.92931 13.511ZM10.5378 7.72059C9.82603 7.72059 9.25101 7.14557 9.25101 6.43382C9.25101 5.72208 9.82603 5.14706 10.5378 5.14706C11.2495 5.14706 11.8245 5.72208 11.8245 6.43382C11.8245 7.14557 11.2495 7.72059 10.5378 7.72059Z" fill="#262626"/>
</g>
<defs>
<clipPath id="clip0_2_8442">
<rect width="20.5882" height="20.5882" fill="white" transform="translate(0.243652)"/>
</clipPath>
</defs>
</svg>
