<svg width="10" height="12" viewBox="0 0 10 12" fill="none" xmlns="http://www.w3.org/2000/svg">
<path d="M9.70615 2.70615C10.0968 2.31553 10.0968 1.68115 9.70615 1.29053C9.31553 0.899902 8.68115 0.899902 8.29053 1.29053L4.9999 4.58428L1.70615 1.29365C1.31553 0.903027 0.681152 0.903027 0.290527 1.29365C-0.100098 1.68428 -0.100098 2.31865 0.290527 2.70928L3.58428 5.9999L0.293652 9.29365C-0.0969727 9.68428 -0.0969727 10.3187 0.293652 10.7093C0.684277 11.0999 1.31865 11.0999 1.70928 10.7093L4.9999 7.41553L8.29365 10.7062C8.68428 11.0968 9.31865 11.0968 9.70928 10.7062C10.0999 10.3155 10.0999 9.68115 9.70928 9.29053L6.41553 5.9999L9.70615 2.70615Z" fill="#B7B7B7"/>
</svg>
