<svg width="21" height="24" viewBox="0 0 21 24" fill="none" xmlns="http://www.w3.org/2000/svg">
<g clip-path="url(#clip0_2_8434)">
<path d="M6.73532 6.48529V8.64706H14.0883V6.48529C14.0883 4.49467 12.443 2.88235 10.4118 2.88235C8.38054 2.88235 6.73532 4.49467 6.73532 6.48529ZM3.79415 8.64706V6.48529C3.79415 2.90487 6.7583 0 10.4118 0C14.0653 0 17.0294 2.90487 17.0294 6.48529V8.64706H17.7647C19.387 8.64706 20.7059 9.93961 20.7059 11.5294V20.1765C20.7059 21.7663 19.387 23.0588 17.7647 23.0588H3.05885C1.43661 23.0588 0.117676 21.7663 0.117676 20.1765V11.5294C0.117676 9.93961 1.43661 8.64706 3.05885 8.64706H3.79415Z" fill="#262626"/>
</g>
<defs>
<clipPath id="clip0_2_8434">
<rect width="20.5882" height="23.0588" fill="white" transform="translate(0.117676)"/>
</clipPath>
</defs>
</svg>
