<svg width="166" height="43" viewBox="0 0 166 43" fill="none" xmlns="http://www.w3.org/2000/svg">
    <path d="M30.0479 18H34.0899V13.4661H36.4424C40.6982 13.4661 42.4305 11.2206 42.4305 8.24792C42.4305 5.27525 40.6982 3.0297 36.4424 3.0297H30.0479V18ZM34.0899 9.95881V6.53703H36.3141C37.7042 6.53703 38.2388 7.28554 38.2388 8.24792C38.2388 9.2103 37.7042 9.95881 36.3141 9.95881H34.0899ZM52.7246 18H56.7666V3.0297H52.7246V8.76119H48.041V3.0297H43.999V18H48.041V12.1188H52.7246V18ZM63.5954 18H67.7871V12.7176L73.155 3.0297H68.557L65.6913 8.78257L62.8255 3.0297H58.2275L63.5954 12.7176V18ZM80.352 18.2139C84.5436 18.2139 87.11 15.8614 87.11 11.2848V9.42416H80.6941V12.6749H83.0466C83.0252 14.4285 81.3143 14.7279 80.3306 14.7279C77.8712 14.7279 77.3579 12.5465 77.3579 10.4721C77.3579 8.4404 77.807 6.32317 80.2664 6.32317C81.0577 6.32317 82.5547 6.49426 82.9397 8.29069H86.9603C86.5967 4.48396 83.5171 2.83723 80.2664 2.83723C75.9678 2.83723 73.2304 5.76713 73.2304 10.6004C73.2304 15.177 75.6042 18.2139 80.352 18.2139ZM88.9851 18H93.0271V3.0297H88.9851V18ZM98.6112 18H102.653V6.60119H106.781V3.0297H94.4837V6.60119H98.6112V18ZM105.362 18H109.618L110.345 15.7545H116.119L116.847 18H121.102L115.863 3.0297H110.602L105.362 18ZM111.286 12.7818L113.125 7.09307H113.339L115.178 12.7818H111.286ZM122.443 18H132.922V14.4927H126.485V3.0297H122.443V18Z" fill="#262626"/>
    <path d="M38.581 39.3861H42.5802L39.6289 34.2748C41.5964 33.4194 42.4305 31.7085 42.4305 29.634C42.4305 26.6614 40.6982 24.4158 36.4424 24.4158H30.0479V39.3861H34.0899V34.8522H36.0574L38.581 39.3861ZM34.0899 31.3449V27.9231H36.3141C37.7042 27.9231 38.2388 28.6717 38.2388 29.634C38.2388 30.5964 37.7042 31.3449 36.3141 31.3449H34.0899ZM44.1452 39.3861H54.988V35.8788H48.1872V33.4408H54.1326V30.297H48.1872V27.9231H54.7741V24.4158H44.1452V39.3861ZM55.8023 39.3861H60.0582L60.7853 37.1406H66.5596L67.2867 39.3861H71.5425L66.3029 24.4158H61.0419L55.8023 39.3861ZM61.7263 34.1679L63.5655 28.4792H63.7794L65.6186 34.1679H61.7263ZM72.8829 39.3861H83.3621V35.8788H76.9248V24.4158H72.8829V39.3861Z" fill="#262626"/>
    <path d="M89.7509 39.3861H100.594V35.8788H93.7929V33.4408H99.7383V30.297H93.7929V27.9231H100.38V24.4158H89.7509V39.3861ZM108.38 39.6C111.78 39.6 114.796 38.3168 114.796 34.8309C114.796 32.6495 113.62 31.1311 109.62 30.3398L107.696 29.9548C106.712 29.741 106.498 29.2063 106.498 28.8214C106.498 28.2439 106.904 27.5596 108.252 27.5596C109.257 27.5596 110.305 27.9018 110.219 29.1849H114.432C114.432 25.7631 111.951 24.2233 108.359 24.2233C104.851 24.2233 102.242 25.6776 102.242 28.8214C102.242 31.794 104.53 32.7564 106.755 33.1841L108.915 33.6119C110.069 33.8471 110.497 34.1893 110.497 34.8522C110.497 35.7932 109.642 36.2637 108.401 36.2637C106.69 36.2637 106.113 35.3014 106.049 34.1679H101.836C101.836 37.8249 104.445 39.6 108.38 39.6ZM119.406 39.3861H123.448V27.9873H127.575V24.4158H115.278V27.9873H119.406V39.3861ZM126.157 39.3861H130.412L131.14 37.1406H136.914L137.641 39.3861H141.897L136.657 24.4158H131.396L126.157 39.3861ZM132.081 34.1679L133.92 28.4792H134.134L135.973 34.1679H132.081ZM144.593 39.3861H148.635V27.9873H152.762V24.4158H140.465V27.9873H144.593V39.3861ZM154.223 39.3861H165.065V35.8788H158.265V33.4408H164.21V30.297H158.265V27.9231H164.852V24.4158H154.223V39.3861Z" fill="url(#paint0_linear_48_47)"/>
    <g clip-path="url(#clip0_48_47)">
        <path d="M1.67744 40.2679L15.2852 26.6601C18.1395 23.8059 18.1395 19.1352 15.2852 16.2809L11.3751 12.3708C16.2645 19.4335 5.50949 22.4757 1.59592 27.4739C-2.31765 32.4721 1.67744 40.2679 1.67744 40.2679Z" fill="url(#paint1_linear_48_47)"/>
        <path d="M1.67744 2.67322L15.2852 16.281C18.1395 19.1353 18.1395 23.8059 15.2852 26.6602L11.3751 30.5703C16.2645 23.5077 5.50949 20.4655 1.59592 15.4673C-2.31765 10.469 1.67744 2.67322 1.67744 2.67322Z" fill="url(#paint2_linear_48_47)"/>
    </g>
    <defs>
        <linearGradient id="paint0_linear_48_47" x1="92.5" y1="24.5" x2="168" y2="43.5" gradientUnits="userSpaceOnUse">
            <stop stop-color="#C453E6"/>
            <stop offset="0.916667" stop-color="#45DFE7"/>
        </linearGradient>
        <linearGradient id="paint1_linear_48_47" x1="13.4999" y1="20.9999" x2="8.65169" y2="40.2679" gradientUnits="userSpaceOnUse">
            <stop stop-color="#C554E7"/>
            <stop offset="1" stop-color="#0BCED7"/>
        </linearGradient>
        <linearGradient id="paint2_linear_48_47" x1="8.65169" y1="2.67322" x2="8.65169" y2="30.5703" gradientUnits="userSpaceOnUse">
            <stop stop-color="#C454E7"/>
            <stop offset="1" stop-color="#E181FF"/>
        </linearGradient>
        <clipPath id="clip0_48_47">
            <rect width="17" height="37" fill="white" transform="translate(0 3)"/>
        </clipPath>
    </defs>
</svg>
