<svg width="186" height="43" viewBox="0 0 186 43" fill="none" xmlns="http://www.w3.org/2000/svg">
<path d="M50.0479 18H54.0899V13.4661H56.4424C60.6982 13.4661 62.4305 11.2206 62.4305 8.24792C62.4305 5.27525 60.6982 3.0297 56.4424 3.0297H50.0479V18ZM54.0899 9.95881V6.53703H56.3141C57.7042 6.53703 58.2388 7.28554 58.2388 8.24792C58.2388 9.2103 57.7042 9.95881 56.3141 9.95881H54.0899ZM72.7246 18H76.7666V3.0297H72.7246V8.76119H68.041V3.0297H63.999V18H68.041V12.1188H72.7246V18ZM83.5954 18H87.7871V12.7176L93.155 3.0297H88.557L85.6913 8.78257L82.8255 3.0297H78.2275L83.5954 12.7176V18ZM100.352 18.2139C104.544 18.2139 107.11 15.8614 107.11 11.2848V9.42416H100.694V12.6749H103.047C103.025 14.4285 101.314 14.7279 100.331 14.7279C97.8712 14.7279 97.3579 12.5465 97.3579 10.4721C97.3579 8.4404 97.807 6.32317 100.266 6.32317C101.058 6.32317 102.555 6.49426 102.94 8.29069H106.96C106.597 4.48396 103.517 2.83723 100.266 2.83723C95.9678 2.83723 93.2304 5.76713 93.2304 10.6004C93.2304 15.177 95.6042 18.2139 100.352 18.2139ZM108.985 18H113.027V3.0297H108.985V18ZM118.611 18H122.653V6.60119H126.781V3.0297H114.484V6.60119H118.611V18ZM125.362 18H129.618L130.345 15.7545H136.119L136.847 18H141.102L135.863 3.0297H130.602L125.362 18ZM131.286 12.7818L133.125 7.09307H133.339L135.178 12.7818H131.286ZM142.443 18H152.922V14.4927H146.485V3.0297H142.443V18Z" fill="#262626"/>
<path d="M58.581 39.3861H62.5802L59.6289 34.2749C61.5964 33.4194 62.4305 31.7085 62.4305 29.6341C62.4305 26.6614 60.6982 24.4158 56.4424 24.4158H50.0479V39.3861H54.0899V34.8523H56.0574L58.581 39.3861ZM54.0899 31.345V27.9232H56.3141C57.7042 27.9232 58.2388 28.6717 58.2388 29.6341C58.2388 30.5964 57.7042 31.345 56.3141 31.345H54.0899ZM64.1452 39.3861H74.988V35.8788H68.1872V33.4408H74.1326V30.297H68.1872V27.9232H74.7741V24.4158H64.1452V39.3861ZM75.8023 39.3861H80.0582L80.7853 37.1406H86.5596L87.2867 39.3861H91.5425L86.3029 24.4158H81.0419L75.8023 39.3861ZM81.7263 34.1679L83.5655 28.4792H83.7794L85.6186 34.1679H81.7263ZM92.8829 39.3861H103.362V35.8788H96.9248V24.4158H92.8829V39.3861Z" fill="#262626"/>
<path d="M109.751 39.3861H120.594V35.8788H113.793V33.4408H119.738V30.297H113.793V27.9232H120.38V24.4158H109.751V39.3861ZM128.38 39.6C131.78 39.6 134.796 38.3168 134.796 34.8309C134.796 32.6495 133.62 31.1311 129.62 30.3398L127.696 29.9549C126.712 29.741 126.498 29.2063 126.498 28.8214C126.498 28.244 126.904 27.5596 128.252 27.5596C129.257 27.5596 130.305 27.9018 130.219 29.185H134.432C134.432 25.7632 131.952 24.2234 128.359 24.2234C124.851 24.2234 122.242 25.6776 122.242 28.8214C122.242 31.7941 124.531 32.7564 126.755 33.1842L128.915 33.6119C130.07 33.8471 130.497 34.1893 130.497 34.8523C130.497 35.7933 129.642 36.2638 128.401 36.2638C126.691 36.2638 126.113 35.3014 126.049 34.1679H121.836C121.836 37.825 124.445 39.6 128.38 39.6ZM139.406 39.3861H143.448V27.9873H147.575V24.4158H135.278V27.9873H139.406V39.3861ZM146.157 39.3861H150.413L151.14 37.1406H156.914L157.641 39.3861H161.897L156.657 24.4158H151.396L146.157 39.3861ZM152.081 34.1679L153.92 28.4792H154.134L155.973 34.1679H152.081ZM164.593 39.3861H168.635V27.9873H172.762V24.4158H160.465V27.9873H164.593V39.3861ZM174.223 39.3861H185.066V35.8788H178.265V33.4408H184.21V30.297H178.265V27.9232H184.852V24.4158H174.223V39.3861Z" fill="url(#paint0_linear_48_140)"/>
<g clip-path="url(#clip0_48_140)">
<path d="M21.6774 40.268L35.2852 26.6602C38.1395 23.806 38.1395 19.1353 35.2852 16.281L31.3751 12.371C36.2645 19.4336 25.5095 22.4758 21.5959 27.474C17.6823 32.4722 21.6774 40.268 21.6774 40.268Z" fill="url(#paint1_linear_48_140)"/>
<path d="M21.6774 2.67327L35.2852 16.281C38.1395 19.1353 38.1395 23.806 35.2852 26.6602L31.3751 30.5703C36.2645 23.5077 25.5095 20.4655 21.5959 15.4673C17.6823 10.4691 21.6774 2.67327 21.6774 2.67327Z" fill="url(#paint2_linear_48_140)"/>
</g>
<defs>
<linearGradient id="paint0_linear_48_140" x1="112.5" y1="24.5" x2="188" y2="43.5" gradientUnits="userSpaceOnUse">
<stop stop-color="#C453E6"/>
<stop offset="0.916667" stop-color="#45DFE7"/>
</linearGradient>
<linearGradient id="paint1_linear_48_140" x1="33.4999" y1="21" x2="28.6517" y2="40.268" gradientUnits="userSpaceOnUse">
<stop stop-color="#C554E7"/>
<stop offset="1" stop-color="#0BCED7"/>
</linearGradient>
<linearGradient id="paint2_linear_48_140" x1="28.6517" y1="2.67327" x2="28.6517" y2="30.5703" gradientUnits="userSpaceOnUse">
<stop stop-color="#C454E7"/>
<stop offset="1" stop-color="#E181FF"/>
</linearGradient>
<clipPath id="clip0_48_140">
<rect width="37.4257" height="37.5947" fill="white" transform="translate(0 2.67326)"/>
</clipPath>
</defs>
</svg>
