<svg width="59" height="52" viewBox="0 0 59 52" fill="none" xmlns="http://www.w3.org/2000/svg">
    <g clip-path="url(#clip0_8_742)">
        <path fill-rule="evenodd" clip-rule="evenodd" d="M16.9868 47.6667L24.6939 49.6786V47.0476L25.323 46.4286H29.727V49.5238V51.6905H25.0084L19.1888 49.2143L16.9868 47.6667Z" fill="#CDBDB2"/>
        <path fill-rule="evenodd" clip-rule="evenodd" d="M42.1528 47.6667L34.6031 49.6786V47.0476L33.9739 46.4286H29.5699V49.5238V51.6905H34.2885L40.1081 49.2143L42.1528 47.6667Z" fill="#CDBDB2"/>
        <path fill-rule="evenodd" clip-rule="evenodd" d="M25.323 41.9405L24.6938 47.0476L25.4803 46.4286H33.6592L34.6029 47.0476L33.9738 41.9405L32.7155 41.1667L26.424 41.3214L25.323 41.9405Z" fill="#393939"/>
        <path fill-rule="evenodd" clip-rule="evenodd" d="M21.0762 7.42856L24.8511 16.0952L26.5812 41.3214H32.7154L34.6028 16.0952L38.0631 7.42856H21.0762Z" fill="#F89C35"/>
        <path fill-rule="evenodd" clip-rule="evenodd" d="M4.56125 26.4643L0.157227 39L11.1673 38.3809H18.2452V32.9643L17.9306 21.8214L16.3578 23.0595L4.56125 26.4643Z" fill="#F89D35"/>
        <path fill-rule="evenodd" clip-rule="evenodd" d="M12.8975 27.8571L25.795 28.1667L24.3794 34.6667L18.2452 33.119L12.8975 27.8571Z" fill="#D87C30"/>
        <path fill-rule="evenodd" clip-rule="evenodd" d="M12.8975 28.0119L18.2452 32.9643V37.9167L12.8975 28.0119Z" fill="#EA8D3A"/>
        <path fill-rule="evenodd" clip-rule="evenodd" d="M18.2451 33.119L24.5366 34.6667L26.5813 41.3214L25.1657 42.0952L18.2451 38.0714V33.119Z" fill="#F89D35"/>
        <path fill-rule="evenodd" clip-rule="evenodd" d="M18.2451 38.0714L16.9868 47.6666L25.323 41.9405L18.2451 38.0714Z" fill="#EB8F35"/>
        <path fill-rule="evenodd" clip-rule="evenodd" d="M25.795 28.1667L26.5815 41.3214L24.2222 34.5893L25.795 28.1667Z" fill="#EA8E3A"/>
        <path fill-rule="evenodd" clip-rule="evenodd" d="M11.0103 38.2262L18.2454 38.0714L16.9871 47.6666L11.0103 38.2262Z" fill="#D87C30"/>
        <path fill-rule="evenodd" clip-rule="evenodd" d="M3.61754 51.8452L16.9869 47.6667L11.01 38.2262L0.157227 39L3.61754 51.8452Z" fill="#EB8F35"/>
        <path fill-rule="evenodd" clip-rule="evenodd" d="M24.8513 16.0952L18.0879 21.6667L12.8975 27.8571L25.795 28.3214L24.8513 16.0952Z" fill="#E8821E"/>
        <path fill-rule="evenodd" clip-rule="evenodd" d="M16.9868 47.6667L25.323 41.9405L24.6939 46.8928V49.6786L19.0315 48.5952L16.9868 47.6667Z" fill="#DFCEC3"/>
        <path fill-rule="evenodd" clip-rule="evenodd" d="M42.1528 47.6667L33.9739 41.9405L34.6031 46.8928V49.6786L40.2654 48.5952L42.1528 47.6667Z" fill="#DFCEC3"/>
        <path fill-rule="evenodd" clip-rule="evenodd" d="M22.3348 30.9524L24.0649 34.5119L17.9308 32.9643L22.3348 30.9524Z" fill="#393939"/>
        <path fill-rule="evenodd" clip-rule="evenodd" d="M3.46045 0.154755L24.8514 16.0952L21.2339 7.42856L3.46045 0.154755Z" fill="#E88F35"/>
        <path fill-rule="evenodd" clip-rule="evenodd" d="M3.46007 0.154755L0.628906 8.66666L2.20177 17.9524L1.10077 18.5714L2.67363 19.9643L1.41534 21.0476L3.14549 22.5952L2.04449 23.5238L4.56107 26.619L16.3576 23.0595C22.1248 18.5198 24.9559 16.1984 24.8511 16.0952C24.7462 15.9921 17.6159 10.6786 3.46007 0.154755Z" fill="#8E5A30"/>
        <path fill-rule="evenodd" clip-rule="evenodd" d="M54.5784 26.4643L58.9824 39L47.9724 38.3809H40.8944V32.9643L41.209 21.8214L42.7819 23.0595L54.5784 26.4643Z" fill="#F89D35"/>
        <path fill-rule="evenodd" clip-rule="evenodd" d="M46.2422 27.8571L33.3447 28.1667L34.7603 34.6667L40.8944 33.119L46.2422 27.8571Z" fill="#D87C30"/>
        <path fill-rule="evenodd" clip-rule="evenodd" d="M46.2422 28.0119L40.8944 32.9643V37.9167L46.2422 28.0119Z" fill="#EA8D3A"/>
        <path fill-rule="evenodd" clip-rule="evenodd" d="M40.8945 33.119L34.6031 34.6667L32.5583 41.3214L33.9739 42.0952L40.8945 38.0714V33.119Z" fill="#F89D35"/>
        <path fill-rule="evenodd" clip-rule="evenodd" d="M40.8945 38.0714L42.1528 47.6666L33.9739 42.0952L40.8945 38.0714Z" fill="#EB8F35"/>
        <path fill-rule="evenodd" clip-rule="evenodd" d="M33.3446 28.1667L32.5582 41.3214L34.9175 34.5893L33.3446 28.1667Z" fill="#EA8E3A"/>
        <path fill-rule="evenodd" clip-rule="evenodd" d="M48.1299 38.2262L40.8947 38.0714L42.153 47.6666L48.1299 38.2262Z" fill="#D87C30"/>
        <path fill-rule="evenodd" clip-rule="evenodd" d="M55.5221 51.8452L42.1527 47.6667L48.1296 38.2262L58.9824 39L55.5221 51.8452Z" fill="#EB8F35"/>
        <path fill-rule="evenodd" clip-rule="evenodd" d="M34.2884 16.0952L41.0517 21.6667L46.2422 27.8571L33.3447 28.3214L34.2884 16.0952Z" fill="#E8821E"/>
        <path fill-rule="evenodd" clip-rule="evenodd" d="M36.8049 30.9524L35.0747 34.5119L41.2089 32.9643L36.8049 30.9524Z" fill="#393939"/>
        <path fill-rule="evenodd" clip-rule="evenodd" d="M55.6792 0.154755L34.2882 16.0952L37.9058 7.42856L55.6792 0.154755Z" fill="#E88F35"/>
        <path fill-rule="evenodd" clip-rule="evenodd" d="M55.6796 0.154755L58.5107 8.66666L56.9379 17.9524L58.0389 18.5714L56.466 19.9643L57.7243 21.0476L55.9942 22.5952L57.0952 23.5238L54.5786 26.619L42.7821 23.0595C37.0149 18.5198 34.1837 16.1984 34.2886 16.0952C34.3934 15.9921 41.5238 10.6786 55.6796 0.154755Z" fill="#8E5A30"/>
    </g>
    <defs>
        <clipPath id="clip0_8_742">
            <rect width="59" height="52" fill="white"/>
        </clipPath>
    </defs>
</svg>