<svg width="24" height="22" viewBox="0 0 24 22" fill="none" xmlns="http://www.w3.org/2000/svg">
    <path d="M3 0.5C1.34531 0.5 0 1.84531 0 3.5V18.5C0 20.1547 1.34531 21.5 3 21.5H21C22.6547 21.5 24 20.1547 24 18.5V8C24 6.34531 22.6547 5 21 5H3.75C3.3375 5 3 4.6625 3 4.25C3 3.8375 3.3375 3.5 3.75 3.5H21C21.8297 3.5 22.5 2.82969 22.5 2C22.5 1.17031 21.8297 0.5 21 0.5H3ZM19.5 14.75C18.6703 14.75 18 14.0797 18 13.25C18 12.4203 18.6703 11.75 19.5 11.75C20.3297 11.75 21 12.4203 21 13.25C21 14.0797 20.3297 14.75 19.5 14.75Z" fill="#0BCED7"/>
</svg>